<svg width="19" height="18" viewBox="0 0 19 18" fill="none" xmlns="http://www.w3.org/2000/svg">
<path d="M18.0293 8.91153C18.0336 9.16786 17.9578 9.41913 17.8126 9.63042C17.6675 9.84172 17.4601 10.0025 17.2193 10.0905L12.2789 11.936L10.5207 16.907C10.434 17.147 10.2759 17.3547 10.0677 17.5023C9.85951 17.6498 9.61114 17.73 9.35598 17.7323C9.10082 17.7345 8.85109 17.6586 8.64034 17.5147C8.42959 17.3708 8.26792 17.1659 8.17704 16.9275L6.33229 11.9872L1.36051 10.2289C1.12052 10.1422 0.912819 9.98414 0.765302 9.77593C0.617785 9.56772 0.537522 9.31936 0.535295 9.0642C0.533069 8.80904 0.608985 8.55931 0.752845 8.34856C0.896706 8.13781 1.10162 7.97613 1.34006 7.88525L6.2804 6.04051L8.03864 1.06873C8.12534 0.82874 8.28342 0.621036 8.49162 0.47352C8.69983 0.326003 8.9482 0.24574 9.20336 0.243513C9.45852 0.241286 9.70825 0.317203 9.919 0.461063C10.1297 0.604924 10.2914 0.809837 10.3823 1.04827L12.2278 5.98861L17.1988 7.74686C17.4411 7.83062 17.6513 7.9878 17.8001 8.19652C17.949 8.40525 18.0291 8.65517 18.0293 8.91153Z" fill="#F2F0EF"/>
</svg>
