<svg width="51" height="50" viewBox="0 0 51 50" fill="none" xmlns="http://www.w3.org/2000/svg">
<path d="M3.25744 2.28089H25.2816V24.3051H3.25744V2.28089Z" fill="#3F2120"/>
<path d="M28.9523 27.9758H50.9766V50H28.9523V27.9758Z" fill="#3F2120"/>
<path d="M33.6573 22.3211C30.8126 20.3301 28.9523 17.0288 28.9523 13.293C28.9523 7.21117 33.8826 2.28089 39.9644 2.28089H50.9766V13.293C50.9766 19.3748 46.0463 24.3051 39.9644 24.3051C37.6184 24.3051 35.4437 23.5715 33.6573 22.3211Z" fill="#3F2120"/>
<path d="M3.25744 38.9879C3.25744 32.9061 8.18772 27.9758 14.2695 27.9758C16.6156 27.9758 18.7903 28.7094 20.5767 29.9598C23.4214 31.9508 25.2816 35.2521 25.2816 38.9879C25.2816 45.0697 20.3514 50 14.2695 50H3.25744V38.9879Z" fill="#3F2120"/>
<path d="M0 0V22.0242L3.25744 24.3051V2.28089L0 0Z" fill="#3F2120"/>
<path d="M22.0242 0H0L3.25744 2.28089H25.2816L22.0242 0Z" fill="#3F2120"/>
<path d="M0 22.0242L22.0242 22.0242L25.2816 24.3051H3.25744L0 22.0242Z" fill="#3F2120"/>
<path d="M0 36.707C0 30.6252 4.93029 25.6949 11.0121 25.6949L14.2695 27.9758C8.18772 27.9758 3.25744 32.9061 3.25744 38.9879L0 36.707Z" fill="#3F2120"/>
<path d="M0 36.707V47.7191L3.25744 50V38.9879L0 36.707Z" fill="#3F2120"/>
<path d="M22.0242 22.0242V0L25.2816 2.28089V24.3051L22.0242 22.0242Z" fill="#3F2120"/>
<path d="M17.3193 27.6789C15.5328 26.4285 13.3581 25.6949 11.0121 25.6949L14.2695 27.9758C16.6156 27.9758 18.7903 28.7094 20.5767 29.9598L17.3193 27.6789Z" fill="#3F2120"/>
<path d="M25.6949 11.0121C25.6949 4.93029 30.6252 0 36.707 0L39.9644 2.28089C33.8826 2.28089 28.9523 7.21117 28.9523 13.293L25.6949 11.0121Z" fill="#3F2120"/>
<path d="M25.6949 11.0121C25.6949 14.7479 27.5552 18.0492 30.3999 20.0402L33.6537 22.3186C30.811 20.3273 28.9523 17.0272 28.9523 13.293L25.6949 11.0121Z" fill="#3F2120"/>
<path d="M0 47.7191L11.0121 47.7191L14.2695 50H3.25744L0 47.7191Z" fill="#3F2120"/>
<path d="M47.7191 0H36.707L39.9644 2.28089H50.9766L47.7191 0Z" fill="#3F2120"/>
<path d="M22.0242 36.707C22.0242 32.9728 20.1655 29.6727 17.3229 27.6814L20.5767 29.9598C23.4214 31.9508 25.2816 35.2521 25.2816 38.9879L22.0242 36.707Z" fill="#3F2120"/>
<path d="M11.0121 47.7191C17.0939 47.7191 22.0242 42.7888 22.0242 36.707L25.2816 38.9879C25.2816 45.0697 20.3514 50 14.2695 50L11.0121 47.7191Z" fill="#3F2120"/>
<path d="M30.3999 20.0402C32.1863 21.2906 34.361 22.0242 36.707 22.0242L39.9644 24.3051C37.6184 24.3051 35.4437 23.5715 33.6573 22.3211L30.3999 20.0402Z" fill="#3F2120"/>
<path d="M25.6949 25.6949V47.7191L28.9523 50V27.9758L25.6949 25.6949Z" fill="#3F2120"/>
<path d="M47.7191 11.0121L47.7191 0L50.9766 2.28089V13.293L47.7191 11.0121Z" fill="#3F2120"/>
<path d="M36.707 22.0242C42.7888 22.0242 47.7191 17.0939 47.7191 11.0121L50.9766 13.293C50.9766 19.3748 46.0463 24.3051 39.9644 24.3051L36.707 22.0242Z" fill="#3F2120"/>
<path d="M47.7191 25.6949H25.6949L28.9523 27.9758H50.9766L47.7191 25.6949Z" fill="#3F2120"/>
<path d="M25.6949 47.7191L47.7191 47.7191L50.9766 50H28.9523L25.6949 47.7191Z" fill="#3F2120"/>
<path d="M47.7191 47.7191V25.6949L50.9766 27.9758V50L47.7191 47.7191Z" fill="#3F2120"/>
<path d="M0 0H22.0242V22.0242L0 22.0242V0Z" fill="#3B82F6"/>
<path d="M25.6949 25.6949H47.7191V47.7191L25.6949 47.7191V25.6949Z" fill="#3B82F6"/>
<path d="M25.6949 11.0121C25.6949 4.93029 30.6252 0 36.707 0H47.7191L47.7191 11.0121C47.7191 17.0939 42.7888 22.0242 36.707 22.0242C30.6252 22.0242 25.6949 17.0939 25.6949 11.0121Z" fill="#F59E0B"/>
<path d="M0 36.707C0 30.6252 4.93029 25.6949 11.0121 25.6949C17.0939 25.6949 22.0242 30.6252 22.0242 36.707C22.0242 42.7888 17.0939 47.7191 11.0121 47.7191L0 47.7191V36.707Z" fill="#F59E0B"/>
</svg>
